# xmcd
#
# Track frame offsets:
#	150
#	15910
#	31171
#	49331
#	64668
#	81714
#	96533
#	114443
#	129992
#	144561
#	162529
#	176599
#
# Disc length: 2536 seconds
#
# Revision: 1
# Processed by: cddbd v1.5.2PL0 Copyright (c) Steve Scherf et al.
# Submitted via: audiograbber 1.83.01
#
DISCID=a309e60c
DTITLE=Jonny Hill - Was Zum Teufel Ist Schon Liebe
DYEAR=2007
DGENRE=Country
TTITLE0=Was Zum Teufel Ist Schon Liebe (Neue Version)
TTITLE1=Du Warst Mehr
TTITLE2=Jeden Abend Um Halb Acht
TTITLE3=Und Wieder Fahr Ich Weg Von Dir
TTITLE4=Ist Es Liebe
TTITLE5=Eine Wie Du
TTITLE6=Spiele Nicht Mit Mir
TTITLE7=Komm Lass Uns Einfach Fortfahr'n
TTITLE8=Geblendet Von Der Nacht (Neue Version)
TTITLE9=Lieber Gott
TTITLE10=Country Roads (Dieser Weg Fuehrt Nach Haus) (Neue Version)
TTITLE11=Ein Ring Aus Feuer (Ring Of Fire) (Neue Version)
EXTD=
EXTT0=
EXTT1=
EXTT2=
EXTT3=
EXTT4=
EXTT5=
EXTT6=
EXTT7=
EXTT8=
EXTT9=
EXTT10=
EXTT11=
PLAYORDER=
